# xmcd
#
# Track frame offsets:
#	150
#	12235
#	23765
#	35565
#	47200
#	60443
#	71371
#	82336
#	95804
#	108149
#	120464
#	133564
#	145924
#	158154
#	170724
#	182259
#	194045
#	206778
#	218573
#	230973
#
# Disc length: 3243 seconds
#
# Revision: 1
# Processed by: cddbd v1.5.2PL0 Copyright (c) Steve Scherf et al.
# Submitted via: audiograbber 1.83.01
#
DISCID=220ca914
DTITLE=Hank Williams Sr - Honky Tonk Man CD2
DYEAR=1900
DGENRE=Country
TTITLE0=Your Cheatin' Heart
TTITLE1=Kaw-Liga
TTITLE2=Take These Chains From My Heart
TTITLE3=You Win Again
TTITLE4=Mind Your Own Business
TTITLE5=Why Don't You Love Me
TTITLE6=Weary Blues From Waitin'
TTITLE7=You're Gonna Change (Or I'm Gonna Leave)
TTITLE8=Move It On Over
TTITLE9=Lovesick Blues
TTITLE10=Wedding Bells
TTITLE11=Honky-Tonkin'
TTITLE12=Cold, Cold Heart
TTITLE13=I'm So Lonesome I Could Cry
TTITLE14=My Bucket's Got A Hole In It
TTITLE15=Dear John
TTITLE16=I Just Don't Like This Kind Of Livin'
TTITLE17=Long Gone Lonesome Blues
TTITLE18=They'll Never Take Her Love From Me
TTITLE19=I Saw The Light
EXTD=
EXTT0=
EXTT1=
EXTT2=
EXTT3=
EXTT4=
EXTT5=
EXTT6=
EXTT7=
EXTT8=
EXTT9=
EXTT10=
EXTT11=
EXTT12=
EXTT13=
EXTT14=
EXTT15=
EXTT16=
EXTT17=
EXTT18=
EXTT19=
PLAYORDER=
